<?xml version="1.0" standalone="no"?><svg xmlns="http://www.w3.org/2000/svg" viewBox="0 0 1440 320"><path fill="#CD5FF8" fill-opacity="1" d="M0,320L6.2,288C12.3,256,25,192,37,186.7C49.2,181,62,235,74,218.7C86.2,203,98,117,111,74.7C123.1,32,135,32,148,48C160,64,172,96,185,101.3C196.9,107,209,85,222,80C233.8,75,246,85,258,101.3C270.8,117,283,139,295,133.3C307.7,128,320,96,332,106.7C344.6,117,357,171,369,165.3C381.5,160,394,96,406,74.7C418.5,53,431,75,443,112C455.4,149,468,203,480,202.7C492.3,203,505,149,517,112C529.2,75,542,53,554,80C566.2,107,578,181,591,224C603.1,267,615,277,628,272C640,267,652,245,665,218.7C676.9,192,689,160,702,144C713.8,128,726,128,738,112C750.8,96,763,64,775,69.3C787.7,75,800,117,812,117.3C824.6,117,837,75,849,64C861.5,53,874,75,886,74.7C898.5,75,911,53,923,48C935.4,43,948,53,960,74.7C972.3,96,985,128,997,160C1009.2,192,1022,224,1034,202.7C1046.2,181,1058,107,1071,90.7C1083.1,75,1095,117,1108,112C1120,107,1132,53,1145,58.7C1156.9,64,1169,128,1182,160C1193.8,192,1206,192,1218,202.7C1230.8,213,1243,235,1255,213.3C1267.7,192,1280,128,1292,128C1304.6,128,1317,192,1329,224C1341.5,256,1354,256,1366,240C1378.5,224,1391,192,1403,197.3C1415.4,203,1428,245,1434,266.7L1440,288L1440,320L1433.8,320C1427.7,320,1415,320,1403,320C1390.8,320,1378,320,1366,320C1353.8,320,1342,320,1329,320C1316.9,320,1305,320,1292,320C1280,320,1268,320,1255,320C1243.1,320,1231,320,1218,320C1206.2,320,1194,320,1182,320C1169.2,320,1157,320,1145,320C1132.3,320,1120,320,1108,320C1095.4,320,1083,320,1071,320C1058.5,320,1046,320,1034,320C1021.5,320,1009,320,997,320C984.6,320,972,320,960,320C947.7,320,935,320,923,320C910.8,320,898,320,886,320C873.8,320,862,320,849,320C836.9,320,825,320,812,320C800,320,788,320,775,320C763.1,320,751,320,738,320C726.2,320,714,320,702,320C689.2,320,677,320,665,320C652.3,320,640,320,628,320C615.4,320,603,320,591,320C578.5,320,566,320,554,320C541.5,320,529,320,517,320C504.6,320,492,320,480,320C467.7,320,455,320,443,320C430.8,320,418,320,406,320C393.8,320,382,320,369,320C356.9,320,345,320,332,320C320,320,308,320,295,320C283.1,320,271,320,258,320C246.2,320,234,320,222,320C209.2,320,197,320,185,320C172.3,320,160,320,148,320C135.4,320,123,320,111,320C98.5,320,86,320,74,320C61.5,320,49,320,37,320C24.6,320,12,320,6,320L0,320Z"></path></svg>